<svg xmlns="http://www.w3.org/2000/svg" viewBox="0 0 1000 1000" width="1000" height="1000" role="img" aria-label="Direction B — Ethereal Stellar Crown">
  <title>Direction B — Ethereal Stellar Crown</title>
  <rect width="1000" height="1000" fill="#0A0A0A"/>
  <path d="M500 419.5 Q465.46 360.94 500 270 Q534.54 360.94 500 419.5Z" fill="none" stroke="#E8B653" stroke-width="2.76" opacity="1"/>
  <path d="M530.81 425.63 Q521.3 358.3 588.02 287.51 Q585.13 384.74 530.81 425.63Z" fill="none" stroke="#E8B653" stroke-width="2.76" opacity="1"/>
  <path d="M556.92 443.08 Q573.91 377.24 662.63 337.37 Q622.76 426.09 556.92 443.08Z" fill="none" stroke="#E8B653" stroke-width="2.76" opacity="1"/>
  <path d="M574.37 469.19 Q615.26 414.87 712.49 411.98 Q641.7 478.7 574.37 469.19Z" fill="none" stroke="#E8B653" stroke-width="2.76" opacity="1"/>
  <path d="M580.5 500 Q639.06 465.46 730 500 Q639.06 534.54 580.5 500Z" fill="none" stroke="#E8B653" stroke-width="2.76" opacity="1"/>
  <path d="M574.37 530.81 Q641.7 521.3 712.49 588.02 Q615.26 585.13 574.37 530.81Z" fill="none" stroke="#E8B653" stroke-width="2.76" opacity="1"/>
  <path d="M556.92 556.92 Q622.76 573.91 662.63 662.63 Q573.91 622.76 556.92 556.92Z" fill="none" stroke="#E8B653" stroke-width="2.76" opacity="1"/>
  <path d="M530.81 574.37 Q585.13 615.26 588.02 712.49 Q521.3 641.7 530.81 574.37Z" fill="none" stroke="#E8B653" stroke-width="2.76" opacity="1"/>
  <path d="M500 580.5 Q534.54 639.06 500 730 Q465.46 639.06 500 580.5Z" fill="none" stroke="#E8B653" stroke-width="2.76" opacity="1"/>
  <path d="M469.19 574.37 Q478.7 641.7 411.98 712.49 Q414.87 615.26 469.19 574.37Z" fill="none" stroke="#E8B653" stroke-width="2.76" opacity="1"/>
  <path d="M443.08 556.92 Q426.09 622.76 337.37 662.63 Q377.24 573.91 443.08 556.92Z" fill="none" stroke="#E8B653" stroke-width="2.76" opacity="1"/>
  <path d="M425.63 530.81 Q384.74 585.13 287.51 588.02 Q358.3 521.3 425.63 530.81Z" fill="none" stroke="#E8B653" stroke-width="2.76" opacity="1"/>
  <path d="M419.5 500 Q360.94 534.54 270 500 Q360.94 465.46 419.5 500Z" fill="none" stroke="#E8B653" stroke-width="2.76" opacity="1"/>
  <path d="M425.63 469.19 Q358.3 478.7 287.51 411.98 Q384.74 414.87 425.63 469.19Z" fill="none" stroke="#E8B653" stroke-width="2.76" opacity="1"/>
  <path d="M443.08 443.08 Q377.24 426.09 337.37 337.37 Q426.09 377.24 443.08 443.08Z" fill="none" stroke="#E8B653" stroke-width="2.76" opacity="1"/>
  <path d="M469.19 425.63 Q414.87 384.74 411.98 287.51 Q478.7 358.3 469.19 425.63Z" fill="none" stroke="#E8B653" stroke-width="2.76" opacity="1"/>
  <path d="M500 401.1 Q467.31 368.39 500 313.7 Q532.69 368.39 500 401.1Z" fill="none" stroke="#9B6C25" stroke-width="1.61" opacity="0.85"/>
  <path d="M537.85 408.63 Q520.16 365.9 571.29 327.88 Q580.57 390.92 537.85 408.63Z" fill="none" stroke="#9B6C25" stroke-width="1.61" opacity="0.85"/>
  <path d="M569.93 430.07 Q569.94 383.82 631.73 368.27 Q616.18 430.06 569.93 430.07Z" fill="none" stroke="#9B6C25" stroke-width="1.61" opacity="0.85"/>
  <path d="M591.37 462.15 Q609.08 419.43 672.12 428.71 Q634.1 479.84 591.37 462.15Z" fill="none" stroke="#9B6C25" stroke-width="1.61" opacity="0.85"/>
  <path d="M598.9 500 Q631.61 467.31 686.3 500 Q631.61 532.69 598.9 500Z" fill="none" stroke="#9B6C25" stroke-width="1.61" opacity="0.85"/>
  <path d="M591.37 537.85 Q634.1 520.16 672.12 571.29 Q609.08 580.57 591.37 537.85Z" fill="none" stroke="#9B6C25" stroke-width="1.61" opacity="0.85"/>
  <path d="M569.93 569.93 Q616.18 569.94 631.73 631.73 Q569.94 616.18 569.93 569.93Z" fill="none" stroke="#9B6C25" stroke-width="1.61" opacity="0.85"/>
  <path d="M537.85 591.37 Q580.57 609.08 571.29 672.12 Q520.16 634.1 537.85 591.37Z" fill="none" stroke="#9B6C25" stroke-width="1.61" opacity="0.85"/>
  <path d="M500 598.9 Q532.69 631.61 500 686.3 Q467.31 631.61 500 598.9Z" fill="none" stroke="#9B6C25" stroke-width="1.61" opacity="0.85"/>
  <path d="M462.15 591.37 Q479.84 634.1 428.71 672.12 Q419.43 609.08 462.15 591.37Z" fill="none" stroke="#9B6C25" stroke-width="1.61" opacity="0.85"/>
  <path d="M430.07 569.93 Q430.06 616.18 368.27 631.73 Q383.82 569.94 430.07 569.93Z" fill="none" stroke="#9B6C25" stroke-width="1.61" opacity="0.85"/>
  <path d="M408.63 537.85 Q390.92 580.57 327.88 571.29 Q365.9 520.16 408.63 537.85Z" fill="none" stroke="#9B6C25" stroke-width="1.61" opacity="0.85"/>
  <path d="M401.1 500 Q368.39 532.69 313.7 500 Q368.39 467.31 401.1 500Z" fill="none" stroke="#9B6C25" stroke-width="1.61" opacity="0.85"/>
  <path d="M408.63 462.15 Q365.9 479.84 327.88 428.71 Q390.92 419.43 408.63 462.15Z" fill="none" stroke="#9B6C25" stroke-width="1.61" opacity="0.85"/>
  <path d="M430.07 430.07 Q383.82 430.06 368.27 368.27 Q430.06 383.82 430.07 430.07Z" fill="none" stroke="#9B6C25" stroke-width="1.61" opacity="0.85"/>
  <path d="M462.15 408.63 Q419.43 390.92 428.71 327.88 Q479.84 365.9 462.15 408.63Z" fill="none" stroke="#9B6C25" stroke-width="1.61" opacity="0.85"/>
  <path d="M500 256.2 Q449.05 188.86 500 86 Q550.95 188.86 500 256.2Z" fill="none" stroke="#9B6C25" stroke-width="1.61" opacity="0.28"/>
  <path d="M563.1 264.51 Q531.31 186.27 607.15 100.11 Q629.74 212.65 563.1 264.51Z" fill="none" stroke="#9B6C25" stroke-width="1.61" opacity="0.28"/>
  <path d="M621.9 288.86 Q611.44 205.07 707 141.47 Q699.69 256.02 621.9 288.86Z" fill="none" stroke="#9B6C25" stroke-width="1.61" opacity="0.28"/>
  <path d="M672.39 327.61 Q683.98 243.96 792.74 207.26 Q756.04 316.02 672.39 327.61Z" fill="none" stroke="#9B6C25" stroke-width="1.61" opacity="0.28"/>
  <path d="M711.14 378.1 Q743.98 300.31 858.53 293 Q794.93 388.56 711.14 378.1Z" fill="none" stroke="#9B6C25" stroke-width="1.61" opacity="0.28"/>
  <path d="M735.49 436.9 Q787.35 370.26 899.89 392.85 Q813.73 468.69 735.49 436.9Z" fill="none" stroke="#9B6C25" stroke-width="1.61" opacity="0.28"/>
  <path d="M743.8 500 Q811.14 449.05 914 500 Q811.14 550.95 743.8 500Z" fill="none" stroke="#9B6C25" stroke-width="1.61" opacity="0.28"/>
  <path d="M735.49 563.1 Q813.73 531.31 899.89 607.15 Q787.35 629.74 735.49 563.1Z" fill="none" stroke="#9B6C25" stroke-width="1.61" opacity="0.28"/>
  <path d="M711.14 621.9 Q794.93 611.44 858.53 707 Q743.98 699.69 711.14 621.9Z" fill="none" stroke="#9B6C25" stroke-width="1.61" opacity="0.28"/>
  <path d="M672.39 672.39 Q756.04 683.98 792.74 792.74 Q683.98 756.04 672.39 672.39Z" fill="none" stroke="#9B6C25" stroke-width="1.61" opacity="0.28"/>
  <path d="M621.9 711.14 Q699.69 743.98 707 858.53 Q611.44 794.93 621.9 711.14Z" fill="none" stroke="#9B6C25" stroke-width="1.61" opacity="0.28"/>
  <path d="M563.1 735.49 Q629.74 787.35 607.15 899.89 Q531.31 813.73 563.1 735.49Z" fill="none" stroke="#9B6C25" stroke-width="1.61" opacity="0.28"/>
  <path d="M500 743.8 Q550.95 811.14 500 914 Q449.05 811.14 500 743.8Z" fill="none" stroke="#9B6C25" stroke-width="1.61" opacity="0.28"/>
  <path d="M436.9 735.49 Q468.69 813.73 392.85 899.89 Q370.26 787.35 436.9 735.49Z" fill="none" stroke="#9B6C25" stroke-width="1.61" opacity="0.28"/>
  <path d="M378.1 711.14 Q388.56 794.93 293 858.53 Q300.31 743.98 378.1 711.14Z" fill="none" stroke="#9B6C25" stroke-width="1.61" opacity="0.28"/>
  <path d="M327.61 672.39 Q316.02 756.04 207.26 792.74 Q243.96 683.98 327.61 672.39Z" fill="none" stroke="#9B6C25" stroke-width="1.61" opacity="0.28"/>
  <path d="M288.86 621.9 Q256.02 699.69 141.47 707 Q205.07 611.44 288.86 621.9Z" fill="none" stroke="#9B6C25" stroke-width="1.61" opacity="0.28"/>
  <path d="M264.51 563.1 Q212.65 629.74 100.11 607.15 Q186.27 531.31 264.51 563.1Z" fill="none" stroke="#9B6C25" stroke-width="1.61" opacity="0.28"/>
  <path d="M256.2 500 Q188.86 550.95 86 500 Q188.86 449.05 256.2 500Z" fill="none" stroke="#9B6C25" stroke-width="1.61" opacity="0.28"/>
  <path d="M264.51 436.9 Q186.27 468.69 100.11 392.85 Q212.65 370.26 264.51 436.9Z" fill="none" stroke="#9B6C25" stroke-width="1.61" opacity="0.28"/>
  <path d="M288.86 378.1 Q205.07 388.56 141.47 293 Q256.02 300.31 288.86 378.1Z" fill="none" stroke="#9B6C25" stroke-width="1.61" opacity="0.28"/>
  <path d="M327.61 327.61 Q243.96 316.02 207.26 207.26 Q316.02 243.96 327.61 327.61Z" fill="none" stroke="#9B6C25" stroke-width="1.61" opacity="0.28"/>
  <path d="M378.1 288.86 Q300.31 256.02 293 141.47 Q388.56 205.07 378.1 288.86Z" fill="none" stroke="#9B6C25" stroke-width="1.61" opacity="0.28"/>
  <path d="M436.9 264.51 Q370.26 212.65 392.85 100.11 Q468.69 186.27 436.9 264.51Z" fill="none" stroke="#9B6C25" stroke-width="1.61" opacity="0.28"/>
  <circle cx="733.29" cy="870.76" r="1.25" fill="#D7C6AE" opacity="0.5"/>
  <circle cx="796.51" cy="571.95" r="1.48" fill="#F3CC76" opacity="0.82"/>
  <circle cx="858.85" cy="368.09" r="1.34" fill="#E8B653" opacity="0.64"/>
  <circle cx="225.48" cy="568.67" r="1.52" fill="#F3CC76" opacity="0.87"/>
  <circle cx="430.05" cy="166.31" r="1.42" fill="#E8B653" opacity="0.73"/>
  <circle cx="939.88" cy="434.72" r="1.23" fill="#D7C6AE" opacity="0.49"/>
  <circle cx="259.81" cy="198.71" r="1.34" fill="#E8B653" opacity="0.63"/>
  <circle cx="333.49" cy="324.09" r="1.59" fill="#F3CC76" opacity="0.97"/>
  <circle cx="173.03" cy="643.19" r="1.39" fill="#E8B653" opacity="0.7"/>
  <circle cx="139.44" cy="744.59" r="1.25" fill="#D7C6AE" opacity="0.51"/>
  <circle cx="281.66" cy="345.72" r="1.54" fill="#F3CC76" opacity="0.91"/>
  <circle cx="184.19" cy="516.21" r="1.46" fill="#F3CC76" opacity="0.79"/>
  <circle cx="665.84" cy="887.9" r="1.27" fill="#D7C6AE" opacity="0.54"/>
  <circle cx="456.63" cy="241.39" r="1.55" fill="#F3CC76" opacity="0.92"/>
  <circle cx="768.32" cy="542.78" r="1.54" fill="#F3CC76" opacity="0.9"/>
  <circle cx="461.39" cy="70.07" r="1.26" fill="#D7C6AE" opacity="0.52"/>
  <circle cx="463.74" cy="123.7" r="1.35" fill="#E8B653" opacity="0.65"/>
  <circle cx="897.3" cy="526.79" r="1.32" fill="#D7C6AE" opacity="0.6"/>
  <circle cx="218.84" cy="306.94" r="1.42" fill="#E8B653" opacity="0.73"/>
  <circle cx="759.2" cy="789.83" r="1.33" fill="#E8B653" opacity="0.62"/>
  <circle cx="909.76" cy="699.47" r="1.21" fill="#D7C6AE" opacity="0.46"/>
  <circle cx="579.59" cy="765.97" r="1.53" fill="#F3CC76" opacity="0.89"/>
  <circle cx="406.35" cy="751.05" r="1.54" fill="#F3CC76" opacity="0.91"/>
  <circle cx="942.4" cy="495.08" r="1.24" fill="#D7C6AE" opacity="0.49"/>
  <circle cx="559.12" cy="198.25" r="1.47" fill="#F3CC76" opacity="0.81"/>
  <circle cx="173.21" cy="360.33" r="1.39" fill="#E8B653" opacity="0.7"/>
  <circle cx="355.18" cy="905.57" r="1.26" fill="#D7C6AE" opacity="0.52"/>
  <circle cx="446.65" cy="211.12" r="1.5" fill="#F3CC76" opacity="0.85"/>
  <circle cx="216.69" cy="246.69" r="1.35" fill="#E8B653" opacity="0.64"/>
  <circle cx="472.94" cy="863.65" r="1.37" fill="#E8B653" opacity="0.68"/>
  <circle cx="418.56" cy="241.66" r="1.54" fill="#F3CC76" opacity="0.9"/>
  <circle cx="810.29" cy="322.33" r="1.39" fill="#E8B653" opacity="0.69"/>
  <circle cx="367.61" cy="177.48" r="1.4" fill="#E8B653" opacity="0.72"/>
  <circle cx="767.82" cy="319.66" r="1.45" fill="#E8B653" opacity="0.78"/>
  <circle cx="729.97" cy="446.28" r="1.6" fill="#F3CC76" opacity="0.99"/>
  <circle cx="674.09" cy="324.59" r="1.58" fill="#F3CC76" opacity="0.96"/>
  <circle cx="165.8" cy="447.15" r="1.42" fill="#E8B653" opacity="0.74"/>
  <circle cx="711.72" cy="759.06" r="1.43" fill="#E8B653" opacity="0.75"/>
  <circle cx="380.85" cy="228.03" r="1.49" fill="#F3CC76" opacity="0.84"/>
  <circle cx="650.35" cy="323.34" r="1.61" fill="#F3CC76" opacity="1"/>
  <circle cx="814.11" cy="461.89" r="1.46" fill="#F3CC76" opacity="0.79"/>
  <circle cx="252.24" cy="681.65" r="1.47" fill="#F3CC76" opacity="0.82"/>
  <circle cx="683.79" cy="201.56" r="1.4" fill="#E8B653" opacity="0.71"/>
  <circle cx="344.12" cy="853.32" r="1.34" fill="#E8B653" opacity="0.63"/>
  <circle cx="203.9" cy="401.14" r="1.47" fill="#F3CC76" opacity="0.8"/>
  <circle cx="485.27" cy="810.15" r="1.47" fill="#F3CC76" opacity="0.81"/>
  <circle cx="438.4" cy="781.82" r="1.51" fill="#F3CC76" opacity="0.86"/>
  <circle cx="768.79" cy="474.83" r="1.54" fill="#F3CC76" opacity="0.9"/>
  <circle cx="612.02" cy="239.11" r="1.52" fill="#F3CC76" opacity="0.87"/>
  <circle cx="487.01" cy="921.76" r="1.27" fill="#D7C6AE" opacity="0.54"/>
  <circle cx="395.37" cy="282.25" r="1.59" fill="#F3CC76" opacity="0.97"/>
  <circle cx="315.96" cy="780.99" r="1.42" fill="#E8B653" opacity="0.75"/>
  <circle cx="823.95" cy="583.94" r="1.43" fill="#E8B653" opacity="0.75"/>
  <circle cx="515.37" cy="55.35" r="1.23" fill="#D7C6AE" opacity="0.49"/>
  <circle cx="285.36" cy="109.01" r="1.23" fill="#D7C6AE" opacity="0.48"/>
  <circle cx="690.52" cy="676.36" r="1.56" fill="#F3CC76" opacity="0.93"/>
  <circle cx="708.82" cy="607.45" r="1.6" fill="#F3CC76" opacity="0.99"/>
  <circle cx="203.63" cy="534.34" r="1.49" fill="#F3CC76" opacity="0.84"/>
  <circle cx="833.81" cy="684.68" r="1.34" fill="#E8B653" opacity="0.64"/>
  <circle cx="208.11" cy="671.52" r="1.42" fill="#E8B653" opacity="0.74"/>
  <circle cx="637.21" cy="155.73" r="1.36" fill="#E8B653" opacity="0.66"/>
  <circle cx="555.16" cy="120.31" r="1.34" fill="#E8B653" opacity="0.63"/>
  <circle cx="745.06" cy="687.22" r="1.47" fill="#F3CC76" opacity="0.81"/>
  <circle cx="876.62" cy="284.49" r="1.25" fill="#D7C6AE" opacity="0.51"/>
  <circle cx="44.6" cy="462.44" r="1.21" fill="#D7C6AE" opacity="0.46"/>
  <circle cx="884.16" cy="421.12" r="1.33" fill="#E8B653" opacity="0.61"/>
  <circle cx="522.18" cy="205.05" r="1.49" fill="#F3CC76" opacity="0.84"/>
  <circle cx="598.19" cy="934.67" r="1.23" fill="#D7C6AE" opacity="0.48"/>
  <circle cx="221.33" cy="500.94" r="1.52" fill="#F3CC76" opacity="0.88"/>
  <circle cx="300.64" cy="879.34" r="1.26" fill="#D7C6AE" opacity="0.53"/>
  <circle cx="718.57" cy="713.15" r="1.48" fill="#F3CC76" opacity="0.82"/>
  <circle cx="133.2" cy="292.27" r="1.27" fill="#D7C6AE" opacity="0.54"/>
  <circle cx="376.2" cy="269.82" r="1.56" fill="#F3CC76" opacity="0.93"/>
  <circle cx="329.02" cy="720.67" r="1.52" fill="#F3CC76" opacity="0.88"/>
  <circle cx="743.4" cy="403.11" r="1.55" fill="#F3CC76" opacity="0.92"/>
  <circle cx="865.49" cy="229.89" r="1.22" fill="#D7C6AE" opacity="0.46"/>
  <circle cx="420" cy="273.51" r="1.59" fill="#F3CC76" opacity="0.98"/>
  <circle cx="728.93" cy="460.45" r="1.61" fill="#F3CC76" opacity="0.99"/>
  <circle cx="748.03" cy="460.16" r="1.57" fill="#F3CC76" opacity="0.95"/>
  <circle cx="165.52" cy="251.52" r="1.28" fill="#D7C6AE" opacity="0.55"/>
  <circle cx="788.68" cy="661.37" r="1.43" fill="#E8B653" opacity="0.76"/>
  <circle cx="268.7" cy="599.41" r="1.57" fill="#F3CC76" opacity="0.95"/>
  <circle cx="799.84" cy="271.27" r="1.35" fill="#E8B653" opacity="0.65"/>
  <circle cx="179.15" cy="315.73" r="1.37" fill="#E8B653" opacity="0.67"/>
  <circle cx="126.78" cy="399.93" r="1.34" fill="#E8B653" opacity="0.63"/>
  <circle cx="468.09" cy="159.61" r="1.41" fill="#E8B653" opacity="0.73"/>
  <circle cx="602.53" cy="112.19" r="1.31" fill="#D7C6AE" opacity="0.59"/>
  <circle cx="702.36" cy="114.5" r="1.25" fill="#D7C6AE" opacity="0.51"/>
  <circle cx="403.1" cy="776.46" r="1.5" fill="#F3CC76" opacity="0.85"/>
  <circle cx="212.51" cy="635.71" r="1.46" fill="#F3CC76" opacity="0.79"/>
  <circle cx="874.82" cy="750.74" r="1.22" fill="#D7C6AE" opacity="0.47"/>
  <circle cx="513.27" cy="778.56" r="1.52" fill="#F3CC76" opacity="0.88"/>
  <circle cx="801.03" cy="506.12" r="1.49" fill="#F3CC76" opacity="0.83"/>
  <circle cx="257.16" cy="728.02" r="1.43" fill="#E8B653" opacity="0.75"/>
  <circle cx="736.95" cy="281.91" r="1.45" fill="#E8B653" opacity="0.78"/>
  <circle cx="688.84" cy="646.94" r="1.59" fill="#F3CC76" opacity="0.98"/>
  <circle cx="488.41" cy="735.92" r="1.6" fill="#F3CC76" opacity="0.99"/>
  <circle cx="528.98" cy="245.11" r="1.56" fill="#F3CC76" opacity="0.94"/>
  <circle cx="857.93" cy="557.07" r="1.38" fill="#E8B653" opacity="0.68"/>
  <circle cx="664.33" cy="804.3" r="1.41" fill="#E8B653" opacity="0.72"/>
  <circle cx="481.78" cy="186.45" r="1.46" fill="#F3CC76" opacity="0.8"/>
  <circle cx="693.92" cy="295.64" r="1.52" fill="#F3CC76" opacity="0.88"/>
  <circle cx="491.56" cy="760.19" r="1.56" fill="#F3CC76" opacity="0.93"/>
  <circle cx="310.72" cy="267.92" r="1.49" fill="#F3CC76" opacity="0.83"/>
  <circle cx="232.51" cy="775.4" r="1.34" fill="#E8B653" opacity="0.63"/>
  <circle cx="658.92" cy="738.81" r="1.51" fill="#F3CC76" opacity="0.86"/>
  <circle cx="947.18" cy="549.75" r="1.23" fill="#D7C6AE" opacity="0.47"/>
  <circle cx="548.89" cy="809.98" r="1.46" fill="#F3CC76" opacity="0.8"/>
  <circle cx="124.26" cy="683.89" r="1.28" fill="#D7C6AE" opacity="0.55"/>
  <circle cx="789.24" cy="844.41" r="1.23" fill="#D7C6AE" opacity="0.47"/>
  <circle cx="413.47" cy="836.3" r="1.4" fill="#E8B653" opacity="0.72"/>
  <circle cx="337.82" cy="132.7" r="1.31" fill="#D7C6AE" opacity="0.59"/>
  <circle cx="278.23" cy="409.57" r="1.59" fill="#F3CC76" opacity="0.98"/>
  <circle cx="612.28" cy="286.78" r="1.59" fill="#F3CC76" opacity="0.97"/>
  <circle cx="296.38" cy="608.44" r="1.61" fill="#F3CC76" opacity="1"/>
  <circle cx="452.1" cy="833.79" r="1.42" fill="#E8B653" opacity="0.74"/>
  <circle cx="798.75" cy="738.12" r="1.34" fill="#E8B653" opacity="0.64"/>
  <circle cx="729.99" cy="557.22" r="1.6" fill="#F3CC76" opacity="0.98"/>
  <circle cx="568.9" cy="896.19" r="1.31" fill="#D7C6AE" opacity="0.59"/>
  <circle cx="453.6" cy="805.44" r="1.47" fill="#F3CC76" opacity="0.81"/>
  <circle cx="379.57" cy="291.35" r="1.59" fill="#F3CC76" opacity="0.97"/>
  <circle cx="844.67" cy="424.71" r="1.4" fill="#E8B653" opacity="0.71"/>
  <circle cx="59.92" cy="603.16" r="1.22" fill="#D7C6AE" opacity="0.47"/>
  <circle cx="515.87" cy="818.24" r="1.45" fill="#F3CC76" opacity="0.79"/>
  <circle cx="228.84" cy="427.52" r="1.52" fill="#F3CC76" opacity="0.88"/>
  <circle cx="215.63" cy="600.4" r="1.48" fill="#F3CC76" opacity="0.83"/>
  <circle cx="287.87" cy="283.8" r="1.48" fill="#F3CC76" opacity="0.83"/>
  <circle cx="160.34" cy="392.13" r="1.39" fill="#E8B653" opacity="0.7"/>
  <circle cx="386.89" cy="88.19" r="1.27" fill="#D7C6AE" opacity="0.53"/>
  <circle cx="361.5" cy="209.32" r="1.45" fill="#F3CC76" opacity="0.78"/>
  <circle cx="356.79" cy="274.08" r="1.54" fill="#F3CC76" opacity="0.91"/>
  <circle cx="726.85" cy="579.2" r="1.59" fill="#F3CC76" opacity="0.98"/>
  <circle cx="644.58" cy="773.72" r="1.47" fill="#F3CC76" opacity="0.81"/>
  <circle cx="615.77" cy="214.64" r="1.47" fill="#F3CC76" opacity="0.81"/>
  <circle cx="190.61" cy="490.01" r="1.47" fill="#F3CC76" opacity="0.81"/>
  <circle cx="937.25" cy="632.31" r="1.21" fill="#D7C6AE" opacity="0.46"/>
  <circle cx="543.58" cy="729.93" r="1.6" fill="#F3CC76" opacity="0.99"/>
  <circle cx="236.62" cy="536.84" r="1.55" fill="#F3CC76" opacity="0.91"/>
  <circle cx="856.21" cy="483.61" r="1.39" fill="#E8B653" opacity="0.7"/>
  <circle cx="190.66" cy="583.23" r="1.45" fill="#F3CC76" opacity="0.78"/>
  <circle cx="141.39" cy="578.75" r="1.37" fill="#E8B653" opacity="0.67"/>
  <circle cx="545.53" cy="160.72" r="1.41" fill="#E8B653" opacity="0.73"/>
  <circle cx="293.02" cy="647.45" r="1.57" fill="#F3CC76" opacity="0.94"/>
  <circle cx="730.94" cy="473.62" r="1.61" fill="#F3CC76" opacity="0.99"/>
  <circle cx="262.47" cy="432.99" r="1.58" fill="#F3CC76" opacity="0.96"/>
  <circle cx="346.9" cy="233.72" r="1.47" fill="#F3CC76" opacity="0.82"/>
  <circle cx="241.81" cy="834.93" r="1.27" fill="#D7C6AE" opacity="0.54"/>
  <circle cx="827.47" cy="183.6" r="1.22" fill="#D7C6AE" opacity="0.46"/>
  <circle cx="676.04" cy="248.86" r="1.48" fill="#F3CC76" opacity="0.82"/>
  <circle cx="734.31" cy="324.03" r="1.5" fill="#F3CC76" opacity="0.85"/>
  <circle cx="873.18" cy="624.62" r="1.32" fill="#E8B653" opacity="0.61"/>
  <circle cx="526.36" cy="878.17" r="1.35" fill="#E8B653" opacity="0.64"/>
  <circle cx="123.27" cy="631.53" r="1.31" fill="#D7C6AE" opacity="0.6"/>
  <circle cx="717.31" cy="633.76" r="1.57" fill="#F3CC76" opacity="0.94"/>
  <circle cx="280.08" cy="628.73" r="1.57" fill="#F3CC76" opacity="0.94"/>
  <circle cx="406.8" cy="716.5" r="1.6" fill="#F3CC76" opacity="0.99"/>
  <circle cx="351.86" cy="722.45" r="1.54" fill="#F3CC76" opacity="0.91"/>
  <circle cx="467.14" cy="271.38" r="1.61" fill="#F3CC76" opacity="1"/>
  <circle cx="185.18" cy="165.38" r="1.21" fill="#D7C6AE" opacity="0.45"/>
  <circle cx="703.91" cy="364.67" r="1.58" fill="#F3CC76" opacity="0.96"/>
  <circle cx="230.19" cy="370.3" r="1.49" fill="#F3CC76" opacity="0.83"/>
  <circle cx="287.48" cy="251.33" r="1.44" fill="#E8B653" opacity="0.77"/>
  <circle cx="794.24" cy="434.89" r="1.49" fill="#F3CC76" opacity="0.83"/>
  <circle cx="247.85" cy="482.46" r="1.57" fill="#F3CC76" opacity="0.95"/>
  <circle cx="129.81" cy="507.74" r="1.36" fill="#E8B653" opacity="0.66"/>
  <circle cx="190.15" cy="722.25" r="1.35" fill="#E8B653" opacity="0.64"/>
  <circle cx="308.79" cy="324.02" r="1.56" fill="#F3CC76" opacity="0.93"/>
  <circle cx="746.66" cy="548.07" r="1.57" fill="#F3CC76" opacity="0.95"/>
  <circle cx="681.5" cy="352.87" r="1.6" fill="#F3CC76" opacity="0.99"/>
  <circle cx="771.56" cy="431.52" r="1.52" fill="#F3CC76" opacity="0.88"/>
  <circle cx="759.3" cy="630.09" r="1.5" fill="#F3CC76" opacity="0.86"/>
  <circle cx="912.1" cy="581.72" r="1.28" fill="#D7C6AE" opacity="0.55"/>
  <circle cx="696.39" cy="718.25" r="1.5" fill="#F3CC76" opacity="0.85"/>
  <circle cx="259.08" cy="552.93" r="1.58" fill="#F3CC76" opacity="0.96"/>
  <circle cx="369.77" cy="751.94" r="1.52" fill="#F3CC76" opacity="0.87"/>
  <circle cx="613.67" cy="765.68" r="1.51" fill="#F3CC76" opacity="0.86"/>
  <circle cx="594.49" cy="171.34" r="1.41" fill="#E8B653" opacity="0.73"/>
  <circle cx="294.27" cy="633.43" r="1.58" fill="#F3CC76" opacity="0.96"/>
  <circle cx="316.84" cy="200.53" r="1.4" fill="#E8B653" opacity="0.71"/>
  <circle cx="763.74" cy="589.98" r="1.52" fill="#F3CC76" opacity="0.88"/>
  <circle cx="707.37" cy="262.39" r="1.46" fill="#F3CC76" opacity="0.8"/>
  <circle cx="611.5" cy="864.41" r="1.35" fill="#E8B653" opacity="0.64"/>
  <circle cx="69.13" cy="406.88" r="1.24" fill="#D7C6AE" opacity="0.5"/>
  <circle cx="506.09" cy="753.63" r="1.57" fill="#F3CC76" opacity="0.94"/>
  <circle cx="746.49" cy="589.81" r="1.55" fill="#F3CC76" opacity="0.92"/>
  <circle cx="371.18" cy="302.13" r="1.6" fill="#F3CC76" opacity="0.99"/>
  <circle cx="721.96" cy="175.4" r="1.32" fill="#E8B653" opacity="0.61"/>
  <circle cx="478.07" cy="228.55" r="1.54" fill="#F3CC76" opacity="0.9"/>
  <circle cx="254.3" cy="267.81" r="1.42" fill="#E8B653" opacity="0.74"/>
  <circle cx="703.37" cy="840.81" r="1.32" fill="#D7C6AE" opacity="0.6"/>
  <circle cx="594.64" cy="830.82" r="1.41" fill="#E8B653" opacity="0.73"/>
  <circle cx="743.62" cy="645.16" r="1.52" fill="#F3CC76" opacity="0.87"/>
  <circle cx="516.88" cy="224.68" r="1.53" fill="#F3CC76" opacity="0.89"/>
  <circle cx="742.67" cy="427.2" r="1.57" fill="#F3CC76" opacity="0.94"/>
  <circle cx="684.58" cy="780.35" r="1.43" fill="#E8B653" opacity="0.75"/>
  <circle cx="895.46" cy="336.19" r="1.26" fill="#D7C6AE" opacity="0.53"/>
  <circle cx="267.89" cy="804.63" r="1.34" fill="#E8B653" opacity="0.63"/>
  <circle cx="630.02" cy="185.51" r="1.42" fill="#E8B653" opacity="0.74"/>
  <circle cx="89.82" cy="563.72" r="1.29" fill="#D7C6AE" opacity="0.56"/>
  <circle cx="425.61" cy="945.69" r="1.22" fill="#D7C6AE" opacity="0.47"/>
  <circle cx="669.58" cy="691.34" r="1.57" fill="#F3CC76" opacity="0.94"/>
  <circle cx="463.9" cy="258.5" r="1.59" fill="#F3CC76" opacity="0.97"/>
  <circle cx="84.65" cy="350.96" r="1.24" fill="#D7C6AE" opacity="0.49"/>
  <circle cx="772.68" cy="160.78" r="1.25" fill="#D7C6AE" opacity="0.51"/>
  <circle cx="475.01" cy="764.27" r="1.55" fill="#F3CC76" opacity="0.92"/>
  <circle cx="784.73" cy="350.71" r="1.45" fill="#F3CC76" opacity="0.78"/>
  <circle cx="263.95" cy="465.29" r="1.59" fill="#F3CC76" opacity="0.98"/>
  <circle cx="728.15" cy="366.4" r="1.55" fill="#F3CC76" opacity="0.92"/>
  <circle cx="206.29" cy="342.75" r="1.43" fill="#E8B653" opacity="0.75"/>
  <circle cx="578.81" cy="716.84" r="1.61" fill="#F3CC76" opacity="1"/>
  <circle cx="387.33" cy="817.36" r="1.42" fill="#E8B653" opacity="0.74"/>
  <circle cx="767.24" cy="720.86" r="1.41" fill="#E8B653" opacity="0.72"/>
  <circle cx="524.44" cy="761.84" r="1.55" fill="#F3CC76" opacity="0.92"/>
  <circle cx="447.96" cy="748.39" r="1.57" fill="#F3CC76" opacity="0.94"/>
  <circle cx="644.57" cy="249.18" r="1.51" fill="#F3CC76" opacity="0.86"/>
  <circle cx="257.52" cy="533.54" r="1.58" fill="#F3CC76" opacity="0.96"/>
  <circle cx="837.41" cy="635.73" r="1.38" fill="#E8B653" opacity="0.68"/>
  <circle cx="642.47" cy="691.59" r="1.59" fill="#F3CC76" opacity="0.98"/>
  <circle cx="316.54" cy="697.34" r="1.54" fill="#F3CC76" opacity="0.91"/>
  <circle cx="757.32" cy="487.09" r="1.56" fill="#F3CC76" opacity="0.93"/>
  <circle cx="797.58" cy="409.47" r="1.47" fill="#F3CC76" opacity="0.81"/>
  <circle cx="642.41" cy="270.76" r="1.54" fill="#F3CC76" opacity="0.9"/>
  <circle cx="575.88" cy="258.47" r="1.57" fill="#F3CC76" opacity="0.94"/>
  <circle cx="274.27" cy="390.76" r="1.57" fill="#F3CC76" opacity="0.95"/>
  <circle cx="647.64" cy="79.85" r="1.23" fill="#D7C6AE" opacity="0.49"/>
  <circle cx="249.95" cy="633.96" r="1.52" fill="#F3CC76" opacity="0.87"/>
  <circle cx="721.21" cy="421.29" r="1.6" fill="#F3CC76" opacity="0.99"/>
  <circle cx="406.78" cy="736.07" r="1.57" fill="#F3CC76" opacity="0.94"/>
  <circle cx="529.19" cy="259.28" r="1.59" fill="#F3CC76" opacity="0.97"/>
  <circle cx="300.65" cy="621.56" r="1.6" fill="#F3CC76" opacity="0.99"/>
  <circle cx="791.95" cy="226.8" r="1.31" fill="#D7C6AE" opacity="0.59"/>
  <circle cx="191.7" cy="814.78" r="1.24" fill="#D7C6AE" opacity="0.5"/>
  <circle cx="780.02" cy="527.31" r="1.52" fill="#F3CC76" opacity="0.88"/>
  <circle cx="242.61" cy="326.14" r="1.47" fill="#F3CC76" opacity="0.81"/>
  <circle cx="251.75" cy="615.32" r="1.53" fill="#F3CC76" opacity="0.9"/>
  <circle cx="704.51" cy="382.27" r="1.6" fill="#F3CC76" opacity="0.99"/>
  <circle cx="784.69" cy="609.91" r="1.48" fill="#F3CC76" opacity="0.82"/>
  <circle cx="805.05" cy="374.55" r="1.44" fill="#E8B653" opacity="0.76"/>
  <circle cx="251.43" cy="388.68" r="1.54" fill="#F3CC76" opacity="0.9"/>
  <circle cx="627.59" cy="821.39" r="1.41" fill="#E8B653" opacity="0.72"/>
  <circle cx="317.39" cy="741.58" r="1.48" fill="#F3CC76" opacity="0.83"/>
  <circle cx="715.46" cy="801.52" r="1.36" fill="#E8B653" opacity="0.66"/>
  <circle cx="513.34" cy="116.49" r="1.34" fill="#E8B653" opacity="0.63"/>
  <circle cx="755.86" cy="574.33" r="1.55" fill="#F3CC76" opacity="0.91"/>
  <circle cx="713.65" cy="217.06" r="1.39" fill="#E8B653" opacity="0.7"/>
  <circle cx="265.05" cy="567.47" r="1.58" fill="#F3CC76" opacity="0.97"/>
  <circle cx="307.42" cy="822.59" r="1.36" fill="#E8B653" opacity="0.65"/>
  <circle cx="300.17" cy="361.84" r="1.59" fill="#F3CC76" opacity="0.97"/>
  <circle cx="439.4" cy="245.72" r="1.56" fill="#F3CC76" opacity="0.92"/>
  <circle cx="250.17" cy="503.18" r="1.58" fill="#F3CC76" opacity="0.95"/>
  <circle cx="281.52" cy="711.4" r="1.48" fill="#F3CC76" opacity="0.82"/>
  <circle cx="760.98" cy="503.95" r="1.56" fill="#F3CC76" opacity="0.93"/>
  <circle cx="760.36" cy="526.67" r="1.55" fill="#F3CC76" opacity="0.92"/>
  <circle cx="555.07" cy="261.75" r="1.58" fill="#F3CC76" opacity="0.97"/>
  <circle cx="555.77" cy="771.01" r="1.53" fill="#F3CC76" opacity="0.89"/>
  <circle cx="249.87" cy="597.88" r="1.54" fill="#F3CC76" opacity="0.91"/>
  <circle cx="719" cy="338.99" r="1.54" fill="#F3CC76" opacity="0.9"/>
  <circle cx="312.87" cy="292.5" r="1.52" fill="#F3CC76" opacity="0.88"/>
  <circle cx="132.38" cy="350.14" r="1.32" fill="#D7C6AE" opacity="0.6"/>
  <circle cx="319.45" cy="663.17" r="1.59" fill="#F3CC76" opacity="0.97"/>
  <circle cx="766.28" cy="364.23" r="1.49" fill="#F3CC76" opacity="0.84"/>
  <circle cx="486.61" cy="254.77" r="1.58" fill="#F3CC76" opacity="0.96"/>
  <circle cx="747.01" cy="369.48" r="1.52" fill="#F3CC76" opacity="0.88"/>
  <circle cx="494.62" cy="788.33" r="1.51" fill="#F3CC76" opacity="0.86"/>
  <circle cx="616.59" cy="700.06" r="1.61" fill="#F3CC76" opacity="1"/>
  <circle cx="502.67" cy="733.86" r="1.6" fill="#F3CC76" opacity="0.99"/>
  <circle cx="638.92" cy="740.12" r="1.53" fill="#F3CC76" opacity="0.89"/>
  <circle cx="157.9" cy="486.88" r="1.41" fill="#E8B653" opacity="0.73"/>
  <circle cx="657.14" cy="292.37" r="1.56" fill="#F3CC76" opacity="0.93"/>
  <circle cx="598.05" cy="787.83" r="1.48" fill="#F3CC76" opacity="0.82"/>
  <circle cx="202.74" cy="429.36" r="1.48" fill="#F3CC76" opacity="0.82"/>
  <circle cx="265.62" cy="495.37" r="1.6" fill="#F3CC76" opacity="0.99"/>
  <circle cx="401.7" cy="252.37" r="1.55" fill="#F3CC76" opacity="0.91"/>
  <circle cx="663.38" cy="334.47" r="1.61" fill="#F3CC76" opacity="0.99"/>
  <circle cx="339.05" cy="298.73" r="1.56" fill="#F3CC76" opacity="0.93"/>
  <circle cx="834.51" cy="515.47" r="1.43" fill="#E8B653" opacity="0.75"/>
  <circle cx="279.54" cy="671.01" r="1.52" fill="#F3CC76" opacity="0.88"/>
  <circle cx="346.12" cy="779.92" r="1.45" fill="#F3CC76" opacity="0.79"/>
  <circle cx="549.1" cy="230.23" r="1.53" fill="#F3CC76" opacity="0.89"/>
  <circle cx="226.42" cy="482.72" r="1.53" fill="#F3CC76" opacity="0.89"/>
  <circle cx="625.9" cy="261.44" r="1.54" fill="#F3CC76" opacity="0.9"/>
  <circle cx="274.77" cy="758.72" r="1.41" fill="#E8B653" opacity="0.73"/>
  <circle cx="246.97" cy="459.57" r="1.56" fill="#F3CC76" opacity="0.94"/>
  <circle cx="506.07" cy="154.95" r="1.41" fill="#E8B653" opacity="0.72"/>
  <circle cx="608.72" cy="726.08" r="1.57" fill="#F3CC76" opacity="0.95"/>
  <circle cx="242.01" cy="437.68" r="1.55" fill="#F3CC76" opacity="0.92"/>
  <circle cx="433.52" cy="265.95" r="1.59" fill="#F3CC76" opacity="0.97"/>
  <circle cx="437.98" cy="278.47" r="1.61" fill="#F3CC76" opacity="1"/>
  <circle cx="219.49" cy="446.74" r="1.51" fill="#F3CC76" opacity="0.87"/>
  <circle cx="270.39" cy="319.24" r="1.5" fill="#F3CC76" opacity="0.85"/>
  <circle cx="374.37" cy="730.06" r="1.55" fill="#F3CC76" opacity="0.92"/>
  <circle cx="577.12" cy="224.57" r="1.51" fill="#F3CC76" opacity="0.87"/>
  <circle cx="422.74" cy="202.96" r="1.48" fill="#F3CC76" opacity="0.82"/>
  <circle cx="706.48" cy="659.91" r="1.56" fill="#F3CC76" opacity="0.93"/>
  <circle cx="727.61" cy="622.16" r="1.56" fill="#F3CC76" opacity="0.93"/>
  <circle cx="305.53" cy="657.06" r="1.58" fill="#F3CC76" opacity="0.95"/>
  <circle cx="243.66" cy="147.56" r="1.25" fill="#D7C6AE" opacity="0.51"/>
  <circle cx="696.05" cy="634.63" r="1.6" fill="#F3CC76" opacity="0.98"/>
  <circle cx="114.93" cy="452.19" r="1.33" fill="#E8B653" opacity="0.62"/>
  <circle cx="251.88" cy="417.19" r="1.55" fill="#F3CC76" opacity="0.92"/>
  <circle cx="828.06" cy="788.62" r="1.25" fill="#D7C6AE" opacity="0.51"/>
  <circle cx="663.92" cy="665.53" r="1.6" fill="#F3CC76" opacity="0.99"/>
  <circle cx="759.83" cy="666.31" r="1.47" fill="#F3CC76" opacity="0.81"/>
  <circle cx="621.83" cy="747.07" r="1.53" fill="#F3CC76" opacity="0.89"/>
  <circle cx="731.93" cy="517.65" r="1.61" fill="#F3CC76" opacity="0.99"/>
  <circle cx="738.23" cy="494.98" r="1.6" fill="#F3CC76" opacity="0.98"/>
  <circle cx="498.43" cy="231.45" r="1.54" fill="#F3CC76" opacity="0.91"/>
  <circle cx="577.89" cy="731.75" r="1.58" fill="#F3CC76" opacity="0.97"/>
  <circle cx="633.76" cy="302.12" r="1.59" fill="#F3CC76" opacity="0.98"/>
  <circle cx="935.72" cy="378.5" r="1.22" fill="#D7C6AE" opacity="0.47"/>
  <circle cx="675.66" cy="300.03" r="1.55" fill="#F3CC76" opacity="0.91"/>
  <circle cx="691.56" cy="693.9" r="1.54" fill="#F3CC76" opacity="0.9"/>
  <circle cx="354.94" cy="320.99" r="1.61" fill="#F3CC76" opacity="1"/>
  <circle cx="453.17" cy="270.63" r="1.6" fill="#F3CC76" opacity="0.99"/>
  <circle cx="656.88" cy="716.57" r="1.54" fill="#F3CC76" opacity="0.91"/>
  <circle cx="414.72" cy="806.92" r="1.46" fill="#F3CC76" opacity="0.79"/>
  <circle cx="563.88" cy="842.05" r="1.4" fill="#E8B653" opacity="0.72"/>
  <circle cx="632.1" cy="714.99" r="1.57" fill="#F3CC76" opacity="0.95"/>
  <circle cx="169.7" cy="546.92" r="1.43" fill="#E8B653" opacity="0.75"/>
  <circle cx="583.93" cy="285.15" r="1.61" fill="#F3CC76" opacity="1"/>
  <circle cx="364.32" cy="691.36" r="1.6" fill="#F3CC76" opacity="0.99"/>
  <circle cx="807.19" cy="533.97" r="1.47" fill="#F3CC76" opacity="0.81"/>
  <circle cx="690.71" cy="742.01" r="1.47" fill="#F3CC76" opacity="0.81"/>
  <circle cx="746.73" cy="748.79" r="1.4" fill="#E8B653" opacity="0.71"/>
  <circle cx="775.52" cy="392.19" r="1.49" fill="#F3CC76" opacity="0.84"/>
  <circle cx="234.92" cy="405.25" r="1.52" fill="#F3CC76" opacity="0.88"/>
  <circle cx="361.26" cy="250.33" r="1.51" fill="#F3CC76" opacity="0.87"/>
  <circle cx="468.2" cy="749.88" r="1.57" fill="#F3CC76" opacity="0.95"/>
  <circle cx="269.65" cy="533.32" r="1.61" fill="#F3CC76" opacity="0.99"/>
  <circle cx="398.47" cy="129.92" r="1.34" fill="#E8B653" opacity="0.63"/>
  <circle cx="592.64" cy="243.3" r="1.53" fill="#F3CC76" opacity="0.9"/>
  <circle cx="340.62" cy="689.24" r="1.58" fill="#F3CC76" opacity="0.96"/>
  <circle cx="511.43" cy="243.01" r="1.56" fill="#F3CC76" opacity="0.93"/>
  <circle cx="419.92" cy="720.62" r="1.6" fill="#F3CC76" opacity="0.99"/>
  <circle cx="719.61" cy="592.59" r="1.6" fill="#F3CC76" opacity="0.98"/>
  <circle cx="298.95" cy="689.55" r="1.53" fill="#F3CC76" opacity="0.89"/>
  <circle cx="525.86" cy="733.5" r="1.6" fill="#F3CC76" opacity="0.99"/>
  <circle cx="352.95" cy="682.29" r="1.6" fill="#F3CC76" opacity="0.99"/>
  <circle cx="287.03" cy="163.78" r="1.32" fill="#D7C6AE" opacity="0.6"/>
  <circle cx="396.27" cy="873.16" r="1.33" fill="#E8B653" opacity="0.62"/>
  <circle cx="541.69" cy="271.05" r="1.61" fill="#F3CC76" opacity="0.99"/>
  <circle cx="552.98" cy="747.46" r="1.57" fill="#F3CC76" opacity="0.94"/>
  <circle cx="594.65" cy="712.43" r="1.61" fill="#F3CC76" opacity="0.99"/>
  <circle cx="330.77" cy="72.81" r="1.21" fill="#D7C6AE" opacity="0.45"/>
  <circle cx="258.94" cy="447.13" r="1.58" fill="#F3CC76" opacity="0.96"/>
  <circle cx="660.64" cy="848.86" r="1.34" fill="#E8B653" opacity="0.63"/>
  <circle cx="594.13" cy="734.65" r="1.57" fill="#F3CC76" opacity="0.95"/>
  <circle cx="694.43" cy="347.29" r="1.58" fill="#F3CC76" opacity="0.96"/>
  <circle cx="227.01" cy="712.42" r="1.41" fill="#E8B653" opacity="0.72"/>
  <circle cx="265.31" cy="358.97" r="1.53" fill="#F3CC76" opacity="0.9"/>
  <circle cx="709.81" cy="402.23" r="1.61" fill="#F3CC76" opacity="1"/>
  <circle cx="598.73" cy="261.24" r="1.56" fill="#F3CC76" opacity="0.93"/>
  <circle cx="331.36" cy="660.86" r="1.6" fill="#F3CC76" opacity="0.99"/>
  <circle cx="324.46" cy="335.95" r="1.59" fill="#F3CC76" opacity="0.98"/>
  <circle cx="380.76" cy="772.09" r="1.49" fill="#F3CC76" opacity="0.84"/>
  <circle cx="75.04" cy="514.89" r="1.27" fill="#D7C6AE" opacity="0.53"/>
  <circle cx="247.13" cy="577.59" r="1.55" fill="#F3CC76" opacity="0.92"/>
  <circle cx="297.05" cy="386.2" r="1.61" fill="#F3CC76" opacity="0.99"/>
  <circle cx="608.59" cy="713.28" r="1.59" fill="#F3CC76" opacity="0.98"/>
  <circle cx="285.08" cy="582.8" r="1.61" fill="#F3CC76" opacity="1"/>
  <circle cx="451.24" cy="735.88" r="1.59" fill="#F3CC76" opacity="0.97"/>
  <circle cx="499.7" cy="264.55" r="1.6" fill="#F3CC76" opacity="0.99"/>
  <circle cx="789.41" cy="485.6" r="1.51" fill="#F3CC76" opacity="0.86"/>
  <circle cx="529.85" cy="795.89" r="1.49" fill="#F3CC76" opacity="0.84"/>
  <circle cx="698.47" cy="331.83" r="1.56" fill="#F3CC76" opacity="0.93"/>
  <circle cx="676.35" cy="721.6" r="1.52" fill="#F3CC76" opacity="0.87"/>
  <circle cx="326.6" cy="309.72" r="1.56" fill="#F3CC76" opacity="0.93"/>
  <circle cx="243.57" cy="350.71" r="1.49" fill="#F3CC76" opacity="0.84"/>
  <circle cx="592.82" cy="53.91" r="1.22" fill="#D7C6AE" opacity="0.46"/>
  <circle cx="462.87" cy="786.86" r="1.51" fill="#F3CC76" opacity="0.86"/>
  <circle cx="350.99" cy="703.6" r="1.57" fill="#F3CC76" opacity="0.95"/>
  <circle cx="444.6" cy="900.83" r="1.3" fill="#D7C6AE" opacity="0.58"/>
  <circle cx="754.7" cy="239.78" r="1.38" fill="#E8B653" opacity="0.68"/>
  <circle cx="344.43" cy="670.49" r="1.61" fill="#F3CC76" opacity="1"/>
  <circle cx="371.42" cy="705.87" r="1.59" fill="#F3CC76" opacity="0.97"/>
  <circle cx="289.81" cy="308.46" r="1.51" fill="#F3CC76" opacity="0.87"/>
  <circle cx="401.07" cy="179.21" r="1.43" fill="#E8B653" opacity="0.75"/>
  <circle cx="414.54" cy="285.78" r="1.61" fill="#F3CC76" opacity="1"/>
  <circle cx="239.11" cy="656.1" r="1.48" fill="#F3CC76" opacity="0.82"/>
  <circle cx="260.73" cy="483.47" r="1.59" fill="#F3CC76" opacity="0.98"/>
  <circle cx="184.17" cy="614.8" r="1.42" fill="#E8B653" opacity="0.75"/>
  <circle cx="684.42" cy="159.47" r="1.33" fill="#E8B653" opacity="0.62"/>
  <circle cx="439.33" cy="764.44" r="1.54" fill="#F3CC76" opacity="0.9"/>
  <circle cx="281.71" cy="424.55" r="1.61" fill="#F3CC76" opacity="1"/>
  <circle cx="235.5" cy="515.08" r="1.55" fill="#F3CC76" opacity="0.92"/>
  <circle cx="631.27" cy="283.95" r="1.57" fill="#F3CC76" opacity="0.95"/>
  <circle cx="717.59" cy="310.48" r="1.51" fill="#F3CC76" opacity="0.86"/>
  <circle cx="261.28" cy="582.55" r="1.57" fill="#F3CC76" opacity="0.95"/>
  <circle cx="528.06" cy="271.46" r="1.61" fill="#F3CC76" opacity="1"/>
  <circle cx="782.53" cy="451.93" r="1.51" fill="#F3CC76" opacity="0.86"/>
  <circle cx="685.78" cy="337.22" r="1.58" fill="#F3CC76" opacity="0.96"/>
  <circle cx="696.26" cy="313.2" r="1.54" fill="#F3CC76" opacity="0.9"/>
  <circle cx="691.08" cy="361.76" r="1.6" fill="#F3CC76" opacity="0.99"/>
  <circle cx="307.16" cy="635.63" r="1.6" fill="#F3CC76" opacity="0.99"/>
  <circle cx="658.78" cy="215.06" r="1.44" fill="#E8B653" opacity="0.77"/>
  <circle cx="728.54" cy="604.93" r="1.57" fill="#F3CC76" opacity="0.95"/>
  <circle cx="897.25" cy="464.09" r="1.31" fill="#D7C6AE" opacity="0.6"/>
  <circle cx="542.24" cy="951.26" r="1.22" fill="#D7C6AE" opacity="0.47"/>
  <circle cx="698.48" cy="618.44" r="1.61" fill="#F3CC76" opacity="1"/>
  <circle cx="331.52" cy="269.4" r="1.51" fill="#F3CC76" opacity="0.87"/>
  <circle cx="202.01" cy="370.87" r="1.44" fill="#E8B653" opacity="0.77"/>
  <circle cx="443.15" cy="726.14" r="1.6" fill="#F3CC76" opacity="0.99"/>
  <circle cx="354.46" cy="815.9" r="1.4" fill="#E8B653" opacity="0.72"/>
  <circle cx="310.9" cy="343.01" r="1.58" fill="#F3CC76" opacity="0.96"/>
  <circle cx="682.54" cy="274.02" r="1.5" fill="#F3CC76" opacity="0.86"/>
  <circle cx="164.91" cy="686.19" r="1.34" fill="#E8B653" opacity="0.63"/>
  <circle cx="585.69" cy="269.36" r="1.58" fill="#F3CC76" opacity="0.96"/>
  <circle cx="738.47" cy="528.83" r="1.59" fill="#F3CC76" opacity="0.98"/>
  <circle cx="763.52" cy="453.55" r="1.54" fill="#F3CC76" opacity="0.91"/>
  <circle cx="470.04" cy="734.08" r="1.6" fill="#F3CC76" opacity="0.99"/>
  <circle cx="576.75" cy="810.25" r="1.45" fill="#F3CC76" opacity="0.79"/>
  <circle cx="248.59" cy="522.18" r="1.57" fill="#F3CC76" opacity="0.95"/>
  <circle cx="749.09" cy="340.56" r="1.49" fill="#F3CC76" opacity="0.84"/>
  <circle cx="726" cy="406.22" r="1.58" fill="#F3CC76" opacity="0.96"/>
  <circle cx="264.47" cy="403.99" r="1.57" fill="#F3CC76" opacity="0.94"/>
  <circle cx="732.28" cy="506.23" r="1.61" fill="#F3CC76" opacity="0.99"/>
  <circle cx="207.41" cy="467.19" r="1.5" fill="#F3CC76" opacity="0.85"/>
  <circle cx="273.28" cy="457.63" r="1.61" fill="#F3CC76" opacity="1"/>
  <circle cx="75.97" cy="656.83" r="1.22" fill="#D7C6AE" opacity="0.47"/>
  <circle cx="595.39" cy="281.69" r="1.6" fill="#F3CC76" opacity="0.98"/>
  <circle cx="281.87" cy="365.88" r="1.56" fill="#F3CC76" opacity="0.94"/>
  <circle cx="713.42" cy="686.74" r="1.52" fill="#F3CC76" opacity="0.87"/>
  <circle cx="727.94" cy="542.72" r="1.61" fill="#F3CC76" opacity="1"/>
  <circle cx="570.36" cy="749.56" r="1.56" fill="#F3CC76" opacity="0.93"/>
  <circle cx="721.59" cy="563.79" r="1.61" fill="#F3CC76" opacity="1"/>
  <circle cx="389.38" cy="709.55" r="1.6" fill="#F3CC76" opacity="0.98"/>
  <circle cx="728.71" cy="388.19" r="1.57" fill="#F3CC76" opacity="0.94"/>
  <circle cx="236.6" cy="554.9" r="1.54" fill="#F3CC76" opacity="0.91"/>
  <circle cx="521.26" cy="747.63" r="1.58" fill="#F3CC76" opacity="0.96"/>
  <circle cx="391.86" cy="724.24" r="1.58" fill="#F3CC76" opacity="0.95"/>
  <circle cx="588.89" cy="750.31" r="1.55" fill="#F3CC76" opacity="0.91"/>
  <circle cx="675.48" cy="662.39" r="1.59" fill="#F3CC76" opacity="0.98"/>
  <circle cx="718.63" cy="377.59" r="1.57" fill="#F3CC76" opacity="0.95"/>
  <circle cx="622.46" cy="305.28" r="1.61" fill="#F3CC76" opacity="1"/>
  <circle cx="572.21" cy="787.41" r="1.49" fill="#F3CC76" opacity="0.84"/>
  <circle cx="564.46" cy="278.13" r="1.61" fill="#F3CC76" opacity="1"/>
  <circle cx="335.9" cy="335.78" r="1.61" fill="#F3CC76" opacity="0.99"/>
  <circle cx="306.4" cy="229.29" r="1.43" fill="#E8B653" opacity="0.75"/>
  <circle cx="323.84" cy="684.06" r="1.57" fill="#F3CC76" opacity="0.94"/>
  <circle cx="744.49" cy="477.87" r="1.58" fill="#F3CC76" opacity="0.96"/>
  <circle cx="253.7" cy="296.23" r="1.45" fill="#F3CC76" opacity="0.79"/>
  <circle cx="494.48" cy="210.98" r="1.51" fill="#F3CC76" opacity="0.86"/>
  <circle cx="354.01" cy="305.69" r="1.59" fill="#F3CC76" opacity="0.97"/>
  <circle cx="602.77" cy="292.71" r="1.61" fill="#F3CC76" opacity="1"/>
  <circle cx="406" cy="269.09" r="1.58" fill="#F3CC76" opacity="0.95"/>
  <circle cx="561.14" cy="736.59" r="1.58" fill="#F3CC76" opacity="0.97"/>
  <circle cx="428.4" cy="738.84" r="1.58" fill="#F3CC76" opacity="0.95"/>
  <circle cx="740.68" cy="572.81" r="1.57" fill="#F3CC76" opacity="0.95"/>
  <circle cx="286.79" cy="399.59" r="1.6" fill="#F3CC76" opacity="0.99"/>
  <circle cx="407.44" cy="222.42" r="1.5" fill="#F3CC76" opacity="0.85"/>
  <circle cx="655.15" cy="700.44" r="1.57" fill="#F3CC76" opacity="0.94"/>
  <circle cx="522.21" cy="177.84" r="1.45" fill="#E8B653" opacity="0.78"/>
  <circle cx="543.17" cy="250.83" r="1.57" fill="#F3CC76" opacity="0.95"/>
  <circle cx="747.13" cy="514.59" r="1.58" fill="#F3CC76" opacity="0.96"/>
  <circle cx="727.63" cy="667.13" r="1.52" fill="#F3CC76" opacity="0.87"/>
  <circle cx="287.61" cy="326.52" r="1.53" fill="#F3CC76" opacity="0.89"/>
  <circle cx="229.09" cy="618.55" r="1.5" fill="#F3CC76" opacity="0.84"/>
  <circle cx="347.84" cy="748.97" r="1.5" fill="#F3CC76" opacity="0.85"/>
  <circle cx="729.98" cy="430.99" r="1.59" fill="#F3CC76" opacity="0.98"/>
  <circle cx="381.8" cy="698.73" r="1.61" fill="#F3CC76" opacity="1"/>
  <circle cx="775.73" cy="571.37" r="1.51" fill="#F3CC76" opacity="0.87"/>
  <circle cx="641.65" cy="313.59" r="1.6" fill="#F3CC76" opacity="0.99"/>
  <circle cx="302.4" cy="723.48" r="1.49" fill="#F3CC76" opacity="0.84"/>
  <circle cx="480.74" cy="265.63" r="1.6" fill="#F3CC76" opacity="0.99"/>
  <circle cx="565.53" cy="240.16" r="1.54" fill="#F3CC76" opacity="0.91"/>
  <circle cx="470.74" cy="208.46" r="1.5" fill="#F3CC76" opacity="0.85"/>
  <circle cx="656.55" cy="306.16" r="1.58" fill="#F3CC76" opacity="0.95"/>
  <circle cx="673.89" cy="651.44" r="1.61" fill="#F3CC76" opacity="1"/>
  <circle cx="351.64" cy="290.38" r="1.56" fill="#F3CC76" opacity="0.94"/>
  <circle cx="267.01" cy="418.36" r="1.58" fill="#F3CC76" opacity="0.96"/>
  <circle cx="775.75" cy="692.07" r="1.42" fill="#E8B653" opacity="0.75"/>
  <circle cx="516.07" cy="264.09" r="1.6" fill="#F3CC76" opacity="0.98"/>
  <circle cx="276.7" cy="571.21" r="1.6" fill="#F3CC76" opacity="0.99"/>
  <circle cx="655.42" cy="683.14" r="1.59" fill="#F3CC76" opacity="0.98"/>
  <circle cx="768.58" cy="411.1" r="1.52" fill="#F3CC76" opacity="0.87"/>
  <circle cx="277.65" cy="439" r="1.61" fill="#F3CC76" opacity="1"/>
  <circle cx="831.86" cy="395.25" r="1.4" fill="#E8B653" opacity="0.72"/>
  <circle cx="269.15" cy="510.27" r="1.61" fill="#F3CC76" opacity="1"/>
  <circle cx="514.95" cy="730.95" r="1.61" fill="#F3CC76" opacity="1"/>
  <circle cx="293.58" cy="372.98" r="1.59" fill="#F3CC76" opacity="0.97"/>
  <circle cx="626.3" cy="794.37" r="1.45" fill="#F3CC76" opacity="0.78"/>
  <circle cx="312.98" cy="357.85" r="1.6" fill="#F3CC76" opacity="0.99"/>
  <circle cx="753.7" cy="607.17" r="1.53" fill="#F3CC76" opacity="0.89"/>
  <circle cx="632.93" cy="702.23" r="1.59" fill="#F3CC76" opacity="0.97"/>
  <circle cx="460.15" cy="727.85" r="1.61" fill="#F3CC76" opacity="1"/>
  <circle cx="266.72" cy="646.61" r="1.53" fill="#F3CC76" opacity="0.89"/>
  <circle cx="453.3" cy="185.85" r="1.46" fill="#F3CC76" opacity="0.79"/>
  <circle cx="781.33" cy="503.83" r="1.52" fill="#F3CC76" opacity="0.88"/>
  <circle cx="313.72" cy="646.83" r="1.6" fill="#F3CC76" opacity="0.98"/>
  <circle cx="551.38" cy="275.77" r="1.61" fill="#F3CC76" opacity="1"/>
  <circle cx="281.52" cy="595.74" r="1.6" fill="#F3CC76" opacity="0.98"/>
  <circle cx="274.26" cy="553.4" r="1.61" fill="#F3CC76" opacity="1"/>
  <circle cx="421.5" cy="256.31" r="1.56" fill="#F3CC76" opacity="0.94"/>
  <circle cx="567.18" cy="725.54" r="1.6" fill="#F3CC76" opacity="0.99"/>
  <circle cx="365.51" cy="286.73" r="1.57" fill="#F3CC76" opacity="0.95"/>
  <circle cx="538.99" cy="750.09" r="1.57" fill="#F3CC76" opacity="0.94"/>
  <circle cx="662.52" cy="269.32" r="1.52" fill="#F3CC76" opacity="0.88"/>
  <circle cx="756.75" cy="389.68" r="1.52" fill="#F3CC76" opacity="0.88"/>
  <circle cx="482.13" cy="748.03" r="1.58" fill="#F3CC76" opacity="0.96"/>
  <circle cx="325.26" cy="349.17" r="1.61" fill="#F3CC76" opacity="1"/>
  <circle cx="400.86" cy="292.03" r="1.61" fill="#F3CC76" opacity="1"/>
  <circle cx="195.35" cy="557.45" r="1.47" fill="#F3CC76" opacity="0.81"/>
  <circle cx="474.34" cy="243.35" r="1.56" fill="#F3CC76" opacity="0.93"/>
  <circle cx="381.78" cy="249.1" r="1.53" fill="#F3CC76" opacity="0.89"/>
  <circle cx="590.78" cy="201.99" r="1.47" fill="#F3CC76" opacity="0.81"/>
  <circle cx="742.96" cy="442.22" r="1.58" fill="#F3CC76" opacity="0.95"/>
  <circle cx="806.87" cy="635.67" r="1.43" fill="#E8B653" opacity="0.75"/>
  <circle cx="671.85" cy="342.66" r="1.6" fill="#F3CC76" opacity="0.99"/>
  <circle cx="613.24" cy="299.46" r="1.61" fill="#F3CC76" opacity="1"/>
  <circle cx="182.09" cy="768.39" r="1.28" fill="#D7C6AE" opacity="0.56"/>
  <circle cx="714.07" cy="412.5" r="1.61" fill="#F3CC76" opacity="1"/>
  <circle cx="423.08" cy="759.02" r="1.54" fill="#F3CC76" opacity="0.9"/>
  <circle cx="310.58" cy="368.77" r="1.61" fill="#F3CC76" opacity="1"/>
  <circle cx="788.99" cy="550.87" r="1.5" fill="#F3CC76" opacity="0.85"/>
  <circle cx="391.43" cy="741.21" r="1.55" fill="#F3CC76" opacity="0.92"/>
  <circle cx="430.44" cy="726.63" r="1.6" fill="#F3CC76" opacity="0.98"/>
  <circle cx="287.01" cy="616.76" r="1.59" fill="#F3CC76" opacity="0.97"/>
  <circle cx="269.96" cy="477.62" r="1.61" fill="#F3CC76" opacity="1"/>
  <circle cx="334.12" cy="704.12" r="1.55" fill="#F3CC76" opacity="0.92"/>
  <circle cx="824.43" cy="488.18" r="1.44" fill="#E8B653" opacity="0.77"/>
  <circle cx="694.11" cy="373.64" r="1.61" fill="#F3CC76" opacity="1"/>
  <circle cx="262.97" cy="522.93" r="1.6" fill="#F3CC76" opacity="0.98"/>
  <circle cx="607.54" cy="272.4" r="1.57" fill="#F3CC76" opacity="0.95"/>
  <circle cx="457.81" cy="764.07" r="1.54" fill="#F3CC76" opacity="0.91"/>
  <circle cx="505.62" cy="850.1" r="1.4" fill="#E8B653" opacity="0.71"/>
  <circle cx="266.91" cy="375.83" r="1.55" fill="#F3CC76" opacity="0.92"/>
  <circle cx="449.33" cy="256.46" r="1.58" fill="#F3CC76" opacity="0.96"/>
  <circle cx="364.63" cy="313.67" r="1.61" fill="#F3CC76" opacity="1"/>
  <circle cx="630.3" cy="690.36" r="1.61" fill="#F3CC76" opacity="1"/>
  <circle cx="228.27" cy="463.89" r="1.53" fill="#F3CC76" opacity="0.89"/>
  <circle cx="390.65" cy="296" r="1.61" fill="#F3CC76" opacity="1"/>
  <circle cx="271.27" cy="614.88" r="1.56" fill="#F3CC76" opacity="0.94"/>
  <circle cx="722.76" cy="650.44" r="1.54" fill="#F3CC76" opacity="0.91"/>
  <circle cx="303.51" cy="673.32" r="1.55" fill="#F3CC76" opacity="0.92"/>
  <circle cx="769.19" cy="285.61" r="1.41" fill="#E8B653" opacity="0.73"/>
  <circle cx="673.42" cy="677.23" r="1.58" fill="#F3CC76" opacity="0.96"/>
  <circle cx="691.46" cy="662.18" r="1.57" fill="#F3CC76" opacity="0.95"/>
  <circle cx="729.77" cy="486.62" r="1.61" fill="#F3CC76" opacity="1"/>
  <circle cx="853.83" cy="320.33" r="1.32" fill="#D7C6AE" opacity="0.6"/>
  <circle cx="344.96" cy="329.63" r="1.61" fill="#F3CC76" opacity="1"/>
  <circle cx="325.95" cy="650.43" r="1.61" fill="#F3CC76" opacity="1"/>
  <circle cx="643.73" cy="680.13" r="1.61" fill="#F3CC76" opacity="1"/>
  <circle cx="431.12" cy="226.3" r="1.52" fill="#F3CC76" opacity="0.88"/>
  <circle cx="706.3" cy="645.69" r="1.57" fill="#F3CC76" opacity="0.95"/>
  <circle cx="537.16" cy="778.16" r="1.52" fill="#F3CC76" opacity="0.88"/>
  <circle cx="575.99" cy="276.5" r="1.6" fill="#F3CC76" opacity="0.99"/>
  <circle cx="216.43" cy="550.32" r="1.51" fill="#F3CC76" opacity="0.86"/>
  <circle cx="715.46" cy="582.05" r="1.61" fill="#F3CC76" opacity="1"/>
  <circle cx="500" cy="500" r="48.3" fill="#0A0A0A"/>
  <circle cx="500" cy="500" r="57.5" fill="none" stroke="#F3CC76" stroke-width="6.9"/>
</svg>
